<mxfile host="app.diagrams.net" modified="2024-05-16T01:33:31.719Z" agent="Mozilla/5.0 (Windows NT 10.0; Win64; x64) AppleWebKit/537.36 (KHTML, like Gecko) Chrome/124.0.0.0 Safari/537.36" etag="_lhRa1dcIa0d0opjGpbY" version="24.4.2" type="github">
  <diagram name="PÃ¡gina-1" id="h46-6FfAiB6Vriqj71ZK">
    <mxGraphModel dx="1434" dy="780" grid="1" gridSize="10" guides="1" tooltips="1" connect="1" arrows="1" fold="1" page="1" pageScale="1" pageWidth="827" pageHeight="1169" math="0" shadow="0">
      <root>
        <mxCell id="0" />
        <mxCell id="1" parent="0" />
        <mxCell id="KSod0p4OisyNC-YwwMRy-4" value="agendamento" style="html=1;whiteSpace=wrap;" vertex="1" parent="1">
          <mxGeometry x="580" y="230" width="110" height="50" as="geometry" />
        </mxCell>
        <mxCell id="KSod0p4OisyNC-YwwMRy-5" value="procurar psicologos" style="ellipse;shape=umlEntity;whiteSpace=wrap;html=1;" vertex="1" parent="1">
          <mxGeometry x="400" y="200" width="80" height="80" as="geometry" />
        </mxCell>
        <mxCell id="KSod0p4OisyNC-YwwMRy-8" value="" style="endArrow=none;dashed=1;html=1;rounded=0;entryX=0.5;entryY=1;entryDx=0;entryDy=0;" edge="1" parent="1">
          <mxGeometry width="50" height="50" relative="1" as="geometry">
            <mxPoint x="439.5" y="585" as="sourcePoint" />
            <mxPoint x="439.5" y="305" as="targetPoint" />
            <Array as="points">
              <mxPoint x="439.5" y="415" />
            </Array>
          </mxGeometry>
        </mxCell>
        <mxCell id="KSod0p4OisyNC-YwwMRy-9" value="" style="endArrow=none;dashed=1;html=1;rounded=0;entryX=0.5;entryY=1;entryDx=0;entryDy=0;" edge="1" parent="1" source="KSod0p4OisyNC-YwwMRy-11">
          <mxGeometry width="50" height="50" relative="1" as="geometry">
            <mxPoint x="274.5" y="580" as="sourcePoint" />
            <mxPoint x="274.5" y="300" as="targetPoint" />
          </mxGeometry>
        </mxCell>
        <mxCell id="KSod0p4OisyNC-YwwMRy-2" value="Paciente&lt;div&gt;&lt;br&gt;&lt;/div&gt;" style="shape=umlActor;verticalLabelPosition=bottom;verticalAlign=top;html=1;outlineConnect=0;" vertex="1" parent="1">
          <mxGeometry x="260" y="220" width="30" height="60" as="geometry" />
        </mxCell>
        <mxCell id="KSod0p4OisyNC-YwwMRy-10" value="" style="endArrow=none;dashed=1;html=1;rounded=0;entryX=0.5;entryY=1;entryDx=0;entryDy=0;" edge="1" parent="1">
          <mxGeometry width="50" height="50" relative="1" as="geometry">
            <mxPoint x="634.5" y="585" as="sourcePoint" />
            <mxPoint x="634.5" y="305" as="targetPoint" />
            <Array as="points">
              <mxPoint x="634.5" y="415" />
            </Array>
          </mxGeometry>
        </mxCell>
        <mxCell id="KSod0p4OisyNC-YwwMRy-12" value="" style="endArrow=none;dashed=1;html=1;rounded=0;entryX=0.5;entryY=1;entryDx=0;entryDy=0;" edge="1" parent="1" target="KSod0p4OisyNC-YwwMRy-11">
          <mxGeometry width="50" height="50" relative="1" as="geometry">
            <mxPoint x="274.5" y="580" as="sourcePoint" />
            <mxPoint x="274.5" y="300" as="targetPoint" />
          </mxGeometry>
        </mxCell>
        <mxCell id="KSod0p4OisyNC-YwwMRy-11" value="" style="html=1;points=[[0,0,0,0,5],[0,1,0,0,-5],[1,0,0,0,5],[1,1,0,0,-5]];perimeter=orthogonalPerimeter;outlineConnect=0;targetShapes=umlLifeline;portConstraint=eastwest;newEdgeStyle={&quot;curved&quot;:0,&quot;rounded&quot;:0};" vertex="1" parent="1">
          <mxGeometry x="270" y="310" width="10" height="80" as="geometry" />
        </mxCell>
        <mxCell id="KSod0p4OisyNC-YwwMRy-13" value="" style="html=1;points=[[0,0,0,0,5],[0,1,0,0,-5],[1,0,0,0,5],[1,1,0,0,-5]];perimeter=orthogonalPerimeter;outlineConnect=0;targetShapes=umlLifeline;portConstraint=eastwest;newEdgeStyle={&quot;curved&quot;:0,&quot;rounded&quot;:0};" vertex="1" parent="1">
          <mxGeometry x="435" y="310" width="10" height="80" as="geometry" />
        </mxCell>
        <mxCell id="KSod0p4OisyNC-YwwMRy-14" value="psicologo" style="shape=umlActor;verticalLabelPosition=bottom;verticalAlign=top;html=1;" vertex="1" parent="1">
          <mxGeometry x="930" y="210" width="30" height="60" as="geometry" />
        </mxCell>
        <mxCell id="KSod0p4OisyNC-YwwMRy-15" value="formulario" style="html=1;whiteSpace=wrap;" vertex="1" parent="1">
          <mxGeometry x="760" y="230" width="110" height="50" as="geometry" />
        </mxCell>
        <mxCell id="KSod0p4OisyNC-YwwMRy-16" value="" style="endArrow=none;dashed=1;html=1;rounded=0;entryX=0.5;entryY=1;entryDx=0;entryDy=0;" edge="1" parent="1">
          <mxGeometry width="50" height="50" relative="1" as="geometry">
            <mxPoint x="814.5" y="585" as="sourcePoint" />
            <mxPoint x="814.5" y="305" as="targetPoint" />
            <Array as="points">
              <mxPoint x="814.5" y="415" />
            </Array>
          </mxGeometry>
        </mxCell>
      </root>
    </mxGraphModel>
  </diagram>
</mxfile>
